<svg version="1.2" xmlns="http://www.w3.org/2000/svg" viewBox="0 0 205 205" width="205" height="205">
    <title>mamy_wydruki-svg</title>
    <style>
        .s0 { fill: #ffb27f } 
        .s1 { fill: #000000 } 
    </style>
    <g id="Layer 1">
        <path class="s0" d="m57.5 11.1c15-3.6 29.9-7.8 45-11.1 20.1 4.8 40.1 10.1 60.2 15 14.1 3.7 28.3 6.8 42.3 10.8-0.3 45.5-0.1 91-0.1 136.5-34.2 14-68.2 28.6-102.4 42.5-34.2-13.9-68.3-28.3-102.4-42.5 0-45.5 0.2-91-0.1-136.5 19-5.7 38.4-9.7 57.5-14.7zm41.7 7.7c-19.2 4.6-38.2 10.2-57.6 14.2 25.3 7.4 50.8 14.5 76.2 21.7 18.1-6 36.1-12.2 54.2-18.1 0.5-0.3 1.4-0.9 1.8-1.1-20.5-4.6-40.8-10.2-61.3-15-4.4-1.2-8.8-2.8-13.3-1.7zm-82 25.3c0 35.4-0.1 70.8 0 106.1 2.1 2 5 2.6 7.5 3.9 22.7 9.7 45.5 19.3 68.3 28.7 3 1.3 6.2 2.4 9 4.2 0.3-1.6 0.5-3.2 0.4-4.9-0.1-38.2 0.1-76.3-0.1-114.5-21.2-5.6-42.3-12-63.5-17.8-7.3-1.7-14.3-4.4-21.6-5.7z"/>
        <path class="s1" d="m102.1 22.8c3-0.7 6.1 0.1 8.9 1.4-6.5 3.5-13.4 6.2-20.4 8.5 2.1 0 4.2 0 6.2-0.5 8.1-1.8 16.4-2.6 24.5-4.4 4.4-0.9 8.6 1 12.7 2.2-5.6 2.9-11.3 5.5-16.6 8.9 6.2-0.3 12.1-2.2 18.2-3.2 4.8-0.8 9.5-2.9 14.5-1.9 1.7 0.5 3.7 0.6 4.7 2.4-13.5 2-26.9 5.1-40.3 7.8-5.2 1.4-11.2 1.3-15.9-1.7 6.8-3.6 14-6.5 20.3-10.8-9 1.7-18.1 3.2-27.1 4.8-4.2 0.6-8.5 2.3-12.8 1-1.7-0.6-3.5-0.8-5.3-1 0.4-2 2.5-2.3 4-3 8.2-3.3 16.1-7.3 24.4-10.5zm-72.2 42.5c6.2 0.4 12.2 2.5 18.1 4.4 0.5 6.3 2.3 12.4 3.3 18.7 1.8 9.8 3.7 19.5 5.6 29.3 0.5 2.9 0.3 6.2 2 8.7 0.1-3.2 0.9-6.4 1.6-9.5 3-13.8 5.9-27.6 8.8-41.4 7 1.4 14 3.5 20.9 5.5-0.1 27.8-0.1 55.6 0 83.5-0.3 0.4-1 1.1-1.3 1.4-3.8-2.1-7.8-3.6-11.8-5.4 0-21.1 0.3-42.3-0.1-63.4-2 4.8-1.8 10.2-3.4 15.1-2.9 14.4-6.3 28.7-8.8 43.1-4.2-1.7-8.4-3.5-12.5-5.5-3.6-21.2-7.4-42.5-11.1-63.6-0.5 19.4 0.2 38.8-0.3 58.2-3.9-0.5-7.3-2.6-10.9-4.2-0.1-25.1 0-50-0.1-74.9z"/>
    </g>
</svg>
