<svg version="1.2" xmlns="http://www.w3.org/2000/svg" viewBox="0 0 1003 205" width="1003" height="205">
	<title>mamy_wydruki-svg</title>
	<style>
		.s0 { fill: #ffb27f } 
		.s1 { fill: #000000 } 
	</style>
	<g id="Layer 1">
		<path class="s0" d="m57.5 11.1c15-3.6 29.9-7.8 45-11.1 20.1 4.8 40.1 10.1 60.2 15 14.1 3.7 28.3 6.8 42.3 10.8-0.3 45.5-0.1 91-0.1 136.5-34.2 14-68.2 28.6-102.4 42.5-34.2-13.9-68.3-28.3-102.4-42.5 0-45.5 0.2-91-0.1-136.5 19-5.7 38.4-9.7 57.5-14.7zm41.7 7.7c-19.2 4.6-38.2 10.2-57.6 14.2 25.3 7.4 50.8 14.5 76.2 21.7 18.1-6 36.1-12.2 54.2-18.1 0.5-0.3 1.4-0.9 1.8-1.1-20.5-4.6-40.8-10.2-61.3-15-4.4-1.2-8.8-2.8-13.3-1.7zm-82 25.3c0 35.4-0.1 70.8 0 106.1 2.1 2 5 2.6 7.5 3.9 22.7 9.7 45.5 19.3 68.3 28.7 3 1.3 6.2 2.4 9 4.2 0.3-1.6 0.5-3.2 0.4-4.9-0.1-38.2 0.1-76.3-0.1-114.5-21.2-5.6-42.3-12-63.5-17.8-7.3-1.7-14.3-4.4-21.6-5.7z"/>
		<path class="s1" d="m102.1 22.8c3-0.7 6.1 0.1 8.9 1.4-6.5 3.5-13.4 6.2-20.4 8.5 2.1 0 4.2 0 6.2-0.5 8.1-1.8 16.4-2.6 24.5-4.4 4.4-0.9 8.6 1 12.7 2.2-5.6 2.9-11.3 5.5-16.6 8.9 6.2-0.3 12.1-2.2 18.2-3.2 4.8-0.8 9.5-2.9 14.5-1.9 1.7 0.5 3.7 0.6 4.7 2.4-13.5 2-26.9 5.1-40.3 7.8-5.2 1.4-11.2 1.3-15.9-1.7 6.8-3.6 14-6.5 20.3-10.8-9 1.7-18.1 3.2-27.1 4.8-4.2 0.6-8.5 2.3-12.8 1-1.7-0.6-3.5-0.8-5.3-1 0.4-2 2.5-2.3 4-3 8.2-3.3 16.1-7.3 24.4-10.5zm-72.2 42.5c6.2 0.4 12.2 2.5 18.1 4.4 0.5 6.3 2.3 12.4 3.3 18.7 1.8 9.8 3.7 19.5 5.6 29.3 0.5 2.9 0.3 6.2 2 8.7 0.1-3.2 0.9-6.4 1.6-9.5 3-13.8 5.9-27.6 8.8-41.4 7 1.4 14 3.5 20.9 5.5-0.1 27.8-0.1 55.6 0 83.5-0.3 0.4-1 1.1-1.3 1.4-3.8-2.1-7.8-3.6-11.8-5.4 0-21.1 0.3-42.3-0.1-63.4-2 4.8-1.8 10.2-3.4 15.1-2.9 14.4-6.3 28.7-8.8 43.1-4.2-1.7-8.4-3.5-12.5-5.5-3.6-21.2-7.4-42.5-11.1-63.6-0.5 19.4 0.2 38.8-0.3 58.2-3.9-0.5-7.3-2.6-10.9-4.2-0.1-25.1 0-50-0.1-74.9zm784.6-37.2c3.3-0.7 7.5-1.2 10.1 1.4 2.7 2.5 4 6.2 4.6 9.8 1.3 15.7-4.3 30.9-10.3 45.2-3 7.4-7 14.3-10.6 21.5-0.4 4.2 0.3 9.7 4.5 12 4.8 0 7.9-4.4 11.1-7.4 2.2-1.8 1-5 1.5-7.5 0.7-6.2 1.7-12.5 3.6-18.5 1.3-5.1 7.8-7.9 12.3-5.5 1.7 1.3 0.7 3.5 0.4 5.3-1.2 6.4-3.7 12.6-3.5 19.2 3.9-9.6 9.3-20 19.3-24.4 3.6-0.8 9-1.4 10.8 2.9 1.2 6.4-1.7 12.6-1.1 19 2.4 1.7 6.3 0.4 6.9-2.5 0.8-5.4 2.1-10.8 4.1-15.8 1.9-4.6 8.1-5.2 12.2-3.5 0.1 2.1 0.4 4.3-0.3 6.4-2.2 7.8-3.3 15.8-4.5 23.8-0.3 1.6 0.6 3.1 0.9 4.7 1.4 0 3.1 0.3 3.9-1.2 5.2-6.3 7.6-14.4 10.1-22.1 1.3-3.6 1.5-7.8 4-10.8 2.7-2.1 7-2.7 9.8-0.5 0.2 12-5.6 23.4-5.1 35.5-0.1 1.9 1.8 3.6 3.6 2.7 4-1.8 7.1-5.2 9.6-8.7 0.3-21.2 2.5-42.9 10.3-62.8 3.2-7.1 6.8-15.4 14.7-18.2 4.4-2 10.3-0.2 12.5 4.3 4.3 7.6 2.6 17-0.2 24.9-3.9 10.5-10.8 19.5-17.9 28.1-2.1 2.6-4.8 4.7-6.1 7.9-0.5 3.7-0.1 7.5-0.4 11.2 3.8-9.9 9.1-20.7 19.5-25 5.8-3 13.3 0.4 15.5 6.4 2 5.1 0.8 10.8-1.5 15.6-2.3 4.6-6.7 7.5-10.9 10.2 1.2 3 3.4 6 6.9 6.3 5.2 0.6 8.9-4 12-7.5 1.5-1.6 1.3-4 1.6-6 1.2-7.1 2.3-14.2 4.2-21.2 1.6-5.5 12.4-7.5 13.5-0.7-2 10.6-4.1 21.2-5.3 32-1.2 4.4 0.6 9.7-2.6 13.4-3 2-7.3 2.3-10.5 0.5-0.6-1.2-1-2.5-1.4-3.8-8 6.9-22.1 6.9-28.5-2.2-2.4-4.1-4.6-9.6-2.2-14.2 3.3-3.8 9.6-4.4 11.5-9.5 0.2-2.2 0.9-5.1-0.9-6.9-1.7-0.3-3.8-0.3-5 1.1-6 5.7-9.1 13.6-11.8 21.2-1.6 4.4-1.9 9.4-4.5 13.5-2.3 2.4-6.4 2.8-8.9 0.5-1.5-1.6-2-3.7-2.4-5.8-3.6 2-6.6 5.2-10.7 6.2-4.2 1-9.4 1.8-12.7-1.6-3.1-3-2.9-7.6-3.5-11.5-1.8 5.4-4.5 11.6-10.4 13.6-4.5 2.1-9.6-1.4-11.5-5.6-2-3.3-1.6-7.2-2.2-10.9-5.3 1-11.7 2.1-16-2-4-3.9-2.2-9.9-2.3-14.8h-2.4c-7.8 8-10.3 19.3-13.5 29.6-0.9 3.8-6 5.5-9.2 3.5-2.2-1.4-2.8-4.1-3.8-6.3-3.7 2.8-7.3 6.1-12.1 6.8-6.5 1.6-12.1-3.6-14.7-9.1-2.5 2.6-4.8 5.6-7.9 7.5-3.4 1.6-7.4 2.7-11 1.4-5.1-0.8-8.3-5.3-10.4-9.5-4.6 2.9-9 6-13.6 9-0.9 0.8-2.4 1.3-2.5 2.6-2.1 11.5-5 23.1-10.3 33.6-2.3 4.4-5.4 8.8-10 11-4.8 2.5-11.1 2.1-15.3-1.5-4.2-4-4.3-10.4-2.6-15.5 2.4-8.2 8.5-14.6 14.5-20.3 3.9-3.9 8.4-7 12.5-10.6 1.2-4.4 1.8-8.9 2.3-13.4-1.8 5.8-4.8 12.6-11.2 14.5-6.5 2.7-12.2-4.2-13-10.1-0.7-8.4-0.2-16.8 1.3-25-4.5 0.3-8.9-0.7-13.4-1.2-5.4 11.8-13 22.8-23.1 31.1-6.4 4.8-15.8 8.2-23.1 3.5-6.1-4.4-8.2-12.2-9.8-19.2-1.3-4.5-0.8-9.3-1.9-13.9-4.5 11.4-9.4 23.6-19.5 31.3-5.8 4.5-14.9 6-20.6 0.7-7.1-6.5-8.8-16.6-10.5-25.6-0.8-10-2.1-20.1-0.6-30 0.3-9.2 1.2-18.5 3.2-27.6 1.3-6.9 13.7-7.9 14.8-0.4-0.1 6.4-1.6 12.7-2 19.1-1.2 5.6-0.5 11.3-1.5 16.9-0.8 7.1 0.5 14.1 0.8 21.1 0.8 4.4 1.7 9.1 4.4 12.8 1.7 2.8 5.9 2.2 7.9 0 6-5.9 9.4-13.9 12.4-21.6 5.9-15.1 9.2-31 12.1-46.9 0.9-6.8 12.3-9.5 14.9-2.8 0.7 6.3-1.4 12.5-1.8 18.8-0.1 5.5-1.3 11-1 16.6 0.2 11-0.9 22.6 3.3 33.1 2 5.5 9.6 5.9 13.5 2.2 7.5-6.2 11.8-15.2 16.4-23.6-3.1-2.7-6.5-5.2-8.6-8.9-4.6-7.6-5.6-17-3.6-25.6 1.3-6.9 5.6-14 12.6-16.3 4.9-1.4 10.9-1.8 15.1 1.8 6.1 5.5 7.1 14.5 5.6 22.2-0.4 7-2.8 13.6-4.6 20.3 4.1 0 8.3 0.8 12.4 0.1 2.8-3.6 7.9-4.4 12-2.8 0.8 4.8-1.3 9.2-2.1 13.9-1.1 5.4-2 10.9-2.8 16.4-0.3 2.5 0.8 5.6 3.9 4.7 7.5-8.7 10-20.3 13.3-31 1.1-4.5 6.9-6.2 10.7-4.1 1.7 0.8 0.9 2.9 1 4.3-1.6 11.4-3.8 22.7-5.3 34.1 4-3 8.1-5.9 12.1-8.9 1.1-1.7 1-3.8 1.4-5.7 2.1-9 7.9-17.2 16.1-21.7 3.3-1.7 7-2.6 10.6-3.5 0.8-11 3.1-21.9 6.4-32.5 2.6-6.5 5.4-13.9 12-17.1zm-0.3 15.6c-1.8 5.7-2.7 11.6-3.7 17.5-0.9 9.4-2.4 18.7-2.3 28.1 6.1-15.6 13.5-32.1 10.8-49.2-0.3-0.5-0.9-1.6-1.2-2.1-2.1 1.2-2.9 3.6-3.6 5.7zm130.3 1.4c-3.9 10.7-5.9 22.1-7.5 33.3 6.1-6.7 10.5-15 13.4-23.5 1.4-5.3 3.6-12.1-0.6-16.8-3.2 0.9-4.1 4.3-5.3 7zm-247.2 4.7c-2.5 3.2-3.2 7.5-3 11.5-0.2 5.7 1.8 11.9 6.6 15.4 1.1-3.4 2.2-6.8 3-10.2 1-5.7 2.7-12.2-0.8-17.4-1.9-0.7-4.5-1-5.8 0.7zm84.9 56.8c-0.2 3.9-0.9 8.3 2.1 11.3 2.3-0.1 5 0.6 6.8-1.3 2-1.8 4.1-3.8 5.1-6.4-1.5-6.3-0.9-12.7-0.8-19.1-0.3-0.4-1-1.1-1.3-1.5-6.5 3.4-11 9.9-11.9 17zm-56.7 52.5c-0.5 2.2-0.5 4.5-0.2 6.7 1.1 2.1 4.6 1.5 5.6-0.4 5.1-7.1 7.5-15.8 8.9-24.3-6 4.8-11.5 10.7-14.3 18zm-468.2-112.3c5.2-5.6 12.6-10 20.5-9.2 4.8-0.4 8.8 3.4 10 7.8 1.9 7.6-0.5 15.3-0.7 23 3.1-11.6 9-23.9 20.4-29.2 4.1-1.4 8.6-2.9 12.9-1.4 6.2 1.3 9.9 7.6 10.7 13.6 0.4 4 0.1 8.1-0.1 12.1 3.2-8.1 7-16.4 14.2-21.7 6-4.3 14.2-6.1 21.1-3 4.4 2 6.8 6.7 7.8 11.3 0.4 3.9 0.3 7.8 0.1 11.7-2.5 15.3-7 30.2-8.7 45.6 0.4 3.1 1.1 6.7 4.1 8.2 5.4 1.9 11.8-0.9 14.6-5.7 1.2-10.3 5.8-20.6 14.4-26.7 4.9-3.6 11.4-6.1 17.4-4.2 0.3 1 0.7 2.1 1 3.1 3.5-0.1 9-1.3 10.2 3.2-0.8 10-4.4 19.7-4 29.8-0.2 2 2.7 3.5 4.3 2.2 3.5-2.2 6.8-5.3 8.6-9.1 0-7.6 1.4-15 3.3-22.3 0.7-3.3 2.9-6.8 6.5-7.4 2.4-0.9 6-0.9 7.3 1.8-0.8 7.8-4.3 15.1-4.2 23 3.5-9.6 8.6-19.9 18.4-24.4 3.4-0.5 8.7-1.6 10.3 2.5 2 6.7-1.4 13.4-1.8 20.1 3.8-8 8.1-16.5 16-21.1 3.6-2.1 8.7-3.6 12.2-0.6 3.2 4 1.4 9.1 0.9 13.7-1.2 6.6-2.7 13.1-3.6 19.7-0.1 1.9 1.3 3.4 2.2 4.9 4.9-1.3 8.5-5.1 11.3-9.1 0.2-8.8 1.8-17.6 4.8-25.9 1.6-5.1 8.1-6 12.5-4.2 0.1 2.1 0.4 4.4-0.3 6.5-2.2 8.1-3.6 16.5-4.6 24.8 0.1 2.4 1.3 4.4 3.9 3.7 7.8-8.9 10-20.8 13.5-31.7 1.4-4.4 8.9-6.1 11.5-2 0 5.5-1.6 11-2.2 16.4-3.8 21-5.5 42.6-13.4 62.5-2.7 6.4-6 13.3-12.5 16.4-5 2.6-11.7 2.1-15.8-2-4.8-5.4-3.3-13.4-0.5-19.4 5.7-11.1 16-18.8 25.4-26.6 1.2-4.4 1.8-8.9 2.3-13.4-1.9 6-5.1 13.2-12 14.7-5.1 1.9-9.2-3-11.6-7-5.8 5.7-14.9 9.7-22.7 5.7-4.4-3.2-5.5-9.4-4.3-14.5 0.6-6 2.6-11.7 2.5-17.7h-2.4c-4.7 4.9-7.2 11.3-9.6 17.5-2 5.1-2.2 10.9-5.6 15.4-2.4 0.7-5 0.9-7.4 0.1-3.1-2.4-3.6-6.6-4.1-10.2 0.2-7.7 2-15.2 2-23-1.4 0.2-3.1 0.2-3.8 1.7-5.9 8.3-8 18.5-11 28-1 4.3-7.3 5.8-10.2 2.5-1.2-1.4-1.8-3-2.5-4.6-4.3 2.9-8.6 6.3-14 6.5-4.7-1-8.2-4.6-10.1-9-3.5 5.9-10.7 10.5-17.6 8.2-3.8-0.6-6.4-3.6-8.4-6.6-5 4.3-11.3 7.3-17.9 7.4-4.9-0.7-10-2-13.4-5.9-4.3-5.3-5.8-12.8-4.6-19.4 1.7-14.1 5.7-27.9 8.1-41.9 0.4-3.4 0.8-7.1-1.1-10.1-1.5-2.5-4.9-1.6-7.3-1.3-5 2.5-8.5 7.2-11.1 12.1-8 15.3-11.1 32.5-13.7 49.4-1 5.1-0.5 10.9-3.8 15.2-2.9 2.4-7 2.3-10.3 0.9-3.1-2.9-2.4-7.4-2.2-11.1 2.1-16.8 6.1-33.3 8.1-50.1 0.7-4.3 1.1-8.7 0.3-13-1.1-4.1-6-4.2-9.3-3.1-6.6 3-10.6 9.4-13.4 15.8-7.3 15.7-10.2 33-12.8 50-0.3 4.1-1 8.3-3.4 11.7-3.9 1.2-9.8 1.6-11.5-3-1.4-10.3 1.7-20.5 2.9-30.6 1.9-11.8 3.8-23.7 4.8-35.6-0.2-2.8 1.1-6.9-1.9-8.6-4.9-1-8.8 3-12 6.2-2.6 2.4-4.1 6.3-7.5 7.7-2.9-0.2-5-3.4-4.1-6.1 1.2-4.6 4.4-8.3 7.7-11.6zm141 59.2c-0.1 4-1.5 9 1.9 12 2-0.2 4.5 0.5 5.9-1.3 3.2-3.3 4-8 4.8-12.3 0.9-5.4 2.5-10.6 2.8-16-8.7 0.8-13.9 9.7-15.4 17.6zm122.2 53.1c-0.5 2.2-0.5 4.5-0.2 6.7 1.1 2.1 4.6 1.5 5.6-0.4 5.1-7.1 7.5-15.8 8.9-24.3-6 4.8-11.5 10.7-14.3 18z"/>
		<path class="s0" d="m990.2 39.8c4.1-1.7 9.2-0.2 11.7 3.4 0.9 2.1 0.5 4.5 0.4 6.7-2.2 7-12.7 8.8-17.3 3.3-3.6-4.8-0.4-12 5.2-13.4z"/>
	</g>
</svg>
